<svg xmlns="http://www.w3.org/2000/svg" width="158.36" height="47.325" viewBox="0 0 158.36 47.325"><defs><style>.a{fill:gray;}</style></defs><path class="a" d="M26.03,4.176A23.663,23.663,0,1,0,49.7,27.836,23.658,23.658,0,0,0,26.03,4.176Zm33.1,1.694L55.561,23.694a15.988,15.988,0,0,0-.395,3.206c0,3.128,2.086,4.931,6.261,4.931,7.924,0,11.666-6.55,11.666-12.273,0-3.136-1.653-6.133-5.326-6.133a7.046,7.046,0,0,0-5.429,2.49H62.26L64.349,5.87Zm22.439.3a2.935,2.935,0,0,0-2.988,2.939,2.4,2.4,0,0,0,2.514,2.526,2.871,2.871,0,0,0,3.061-2.915,2.443,2.443,0,0,0-2.587-2.551Zm57.345,0a2.943,2.943,0,0,0-2.988,2.939,2.4,2.4,0,0,0,2.52,2.526A2.873,2.873,0,0,0,141.5,8.718a2.441,2.441,0,0,0-2.593-2.551ZM94.021,8.9l-5.283,1.221-.723,3.7H85.749l-.717,3.929h2.229l-1.372,7.02a17.1,17.1,0,0,0-.359,3.273c0,2.2,1.485,3.783,4.573,3.783a10.156,10.156,0,0,0,3.061-.4l.607-4.069a9.734,9.734,0,0,1-1.433.073,1.3,1.3,0,0,1-1.488-1.476,13.847,13.847,0,0,1,.292-2.235l1.2-5.97h3.735l.753-3.929H93.085ZM24,13.419l3.455.656-.632,3.352,2.223.419.632-3.358,3.455.644-.674,3.6a6.71,6.71,0,0,1,1.3.638,5.458,5.458,0,0,1,2.01,2.229,4.352,4.352,0,0,1,.328,2.7,4.564,4.564,0,0,1-.789,1.846,4.914,4.914,0,0,1-1.549,1.366,6.768,6.768,0,0,1-2.362.747,8.925,8.925,0,0,1,2.04,1.215,4.693,4.693,0,0,1,1.421,2.053,4.9,4.9,0,0,1,.182,2.581,5.056,5.056,0,0,1-1.536,2.8,6.078,6.078,0,0,1-3.164,1.573,10.025,10.025,0,0,1-1.6.146l-.686,3.638L24.6,41.621l.632-3.364a1.937,1.937,0,0,0-.255-.049L23,37.843,22.374,41.2l-3.455-.644.626-3.364-5.271-.99L14.8,33.38l.808.152a2.489,2.489,0,0,0,1.117.061.828.828,0,0,0,.474-.316,3.277,3.277,0,0,0,.334-1.123l2.126-11.38a3.448,3.448,0,0,0,.1-1.178.821.821,0,0,0-.334-.468,2.391,2.391,0,0,0-1.063-.346l-.808-.164.528-2.824,5.277,1L24,13.419Zm84.466.006c-6.706,0-11.483,4.9-11.483,11.174,0,4.565,3.061,7.2,7.415,7.2a12.371,12.371,0,0,0,5-.9l-.037-3.978a8.782,8.782,0,0,1-3.492.723,3.3,3.3,0,0,1-3.449-3.632c0-3.315,2.26-6.443,5.97-6.443a6.2,6.2,0,0,1,2.381.425l1.257-3.953a9.564,9.564,0,0,0-3.565-.62Zm14.374,0c-6.264,0-10.512,5.01-10.512,11.131,0,4.366,2.986,7.275,7.451,7.275,6.125,0,10.512-4.729,10.512-11.168,0-4-2.731-7.239-7.451-7.239Zm32.247,0a7.427,7.427,0,0,0-6.194,3.31h-.073l.358-2.909h-4.6c-.227,1.56-.511,3.5-.941,5.727L141.4,31.418h5.18l1.482-7.8c.717-3.888,2.705-6.018,4.4-6.018,1.3,0,1.731.871,1.731,2.089a13.063,13.063,0,0,1-.176,1.986l-1.84,9.747h5.186L159.3,21.2a21.527,21.527,0,0,0,.286-2.982c0-3.033-1.622-4.791-4.5-4.791Zm-77.227.395L74.515,31.43h5.18l3.346-17.611Zm57.333,0L131.848,31.43h5.186l3.346-17.611Zm-13.038,3.534c2.089,0,2.775,1.726,2.775,3.346,0,3.021-1.575,7.172-4.421,7.172-1.8,0-2.818-1.373-2.818-3.419C117.66,21.715,119.171,17.354,122.156,17.354Zm-56.8.255c1.58,0,2.3,1.329,2.3,3.024,0,3.088-2.155,7.269-5.144,7.269a1.822,1.822,0,0,1-1.98-1.943,10.2,10.2,0,0,1,.176-1.931l.328-1.451c.617-3.064,2.449-4.967,4.324-4.967ZM24.936,20.475l-.929,4.974,2.241.425a8.646,8.646,0,0,0,2.654.182,2.516,2.516,0,0,0,1.427-.644,2.362,2.362,0,0,0,.68-1.293,2.186,2.186,0,0,0-1.16-2.478,10.514,10.514,0,0,0-2.672-.747l-2.241-.419Zm-1.488,7.992-.82,4.415a7.836,7.836,0,0,0-.14,1.105.47.47,0,0,0,.188.328,2.857,2.857,0,0,0,.9.249l1.488.285a8.464,8.464,0,0,0,2.2.158,2.867,2.867,0,0,0,1.646-.735,2.984,2.984,0,0,0,.941-1.719,2.8,2.8,0,0,0-.14-1.609,2.666,2.666,0,0,0-1.093-1.19,8.007,8.007,0,0,0-2.526-.8l-2.648-.492Zm95.835,5.678v4.567h-.037a2.59,2.59,0,0,0-2.229-.953c-2.022,0-3.8,1.634-3.783,4.488,0,2.619,1.607,4.336,3.613,4.336a2.965,2.965,0,0,0,2.642-1.433h.037l.115,1.245h2.332c-.04-.573-.073-1.573-.073-2.52V34.145Zm8.222,0V46.394h2.629v-5.01a1.642,1.642,0,0,1,.085-.583,1.406,1.406,0,0,1,1.318-.911c.983,0,1.36.754,1.36,1.864v4.64h2.623V41.463c0-2.539-1.272-3.7-2.951-3.7a2.933,2.933,0,0,0-1.366.328,3.261,3.261,0,0,0-1.038.862h-.03v-4.81h-2.629Zm-26.222,1.4-2.575.577v1.834H97.591v1.931h1.117v3.443a3.535,3.535,0,0,0,.723,2.514,2.777,2.777,0,0,0,1.974.729,4.963,4.963,0,0,0,1.706-.231l-.018-1.986a4.493,4.493,0,0,1-.771.067c-.792,0-1.039-.463-1.039-1.482V39.884h1.889V37.953h-1.889V35.542h0ZM57.9,37.758a6.92,6.92,0,0,0-3.279.747L55.1,40.2a4.713,4.713,0,0,1,2.332-.638c1.3,0,1.536.635,1.536,1.081v.127C55.984,40.747,54.013,41.8,54.013,44a2.58,2.58,0,0,0,2.727,2.581,3.051,3.051,0,0,0,2.417-1.038h.054l.152.85h2.368a13.585,13.585,0,0,1-.115-2.065V41.4C61.616,39.416,60.713,37.758,57.9,37.758Zm10.141,0c-3.144,0-4.834,2.02-4.834,4.488,0,2.655,1.743,4.318,4.47,4.318a6.4,6.4,0,0,0,2.35-.383l-.316-1.931a4.061,4.061,0,0,1-1.5.249,2.361,2.361,0,0,1-.055-4.719,3.6,3.6,0,0,1,1.47.249l.413-1.943A5.858,5.858,0,0,0,68.041,37.758Zm7.6,0c-3.144,0-4.834,2.02-4.834,4.488,0,2.655,1.745,4.318,4.476,4.318a6.417,6.417,0,0,0,2.35-.383l-.31-1.931a4.081,4.081,0,0,1-1.506.249,2.361,2.361,0,0,1-.055-4.719,3.583,3.583,0,0,1,1.464.249l.419-1.943A5.892,5.892,0,0,0,75.638,37.758Zm7.038,0a4.223,4.223,0,0,0-4.263,4.5c0,2.639,1.645,4.306,4.506,4.306a8.212,8.212,0,0,0,3.055-.528l-.34-1.773a7.273,7.273,0,0,1-2.332.346c-1.226,0-2.3-.511-2.381-1.6h5.429a5.636,5.636,0,0,0,.091-1.045c0-2.073-1.043-4.208-3.766-4.208Zm10.518,0a3.239,3.239,0,0,0-2.818,1.366h-.03l-.115-1.172H87.948c.032.768.073,1.724.073,2.83v9.024h2.623v-4.19h.03a2.627,2.627,0,0,0,2.192.966c1.882,0,3.832-1.448,3.832-4.524C96.7,39.364,95.041,37.758,93.194,37.758Zm15.188,0a4.228,4.228,0,0,0-4.263,4.5c0,2.639,1.645,4.306,4.506,4.306a8.212,8.212,0,0,0,3.055-.528l-.346-1.773a7.235,7.235,0,0,1-2.326.346c-1.23,0-2.293-.511-2.381-1.6h5.429a6.647,6.647,0,0,0,.085-1.045c0-2.073-1.033-4.208-3.759-4.208Zm33.036,0a4.223,4.223,0,0,0-4.263,4.5c0,2.639,1.641,4.306,4.506,4.306a8.259,8.259,0,0,0,3.061-.528l-.352-1.773a7.217,7.217,0,0,1-2.326.346c-1.23,0-2.3-.511-2.387-1.6h5.435a6.623,6.623,0,0,0,.085-1.045c0-2.073-1.037-4.208-3.759-4.208Zm15.546,0a4.228,4.228,0,0,0-4.263,4.5c0,2.639,1.645,4.306,4.506,4.306a8.244,8.244,0,0,0,3.061-.528l-.346-1.773a7.255,7.255,0,0,1-2.332.346c-1.226,0-2.293-.511-2.381-1.6h5.429a5.638,5.638,0,0,0,.091-1.045c0-2.073-1.039-4.208-3.765-4.208Zm-5.581.012a2.473,2.473,0,0,0-2.271,1.743h-.079l-.085-1.561H146.7c.032.725.061,1.544.061,2.781v5.66h2.623V42.112a2.939,2.939,0,0,1,.055-.583,1.681,1.681,0,0,1,1.792-1.33,4.065,4.065,0,0,1,.717.073V37.8A2.68,2.68,0,0,0,151.384,37.77ZM82.519,39.5a1.532,1.532,0,0,1,1.488,1.712H80.9A1.717,1.717,0,0,1,82.519,39.5Zm25.706,0a1.53,1.53,0,0,1,1.494,1.712H106.6A1.726,1.726,0,0,1,108.225,39.5Zm33.036,0a1.527,1.527,0,0,1,1.488,1.712h-3.109A1.72,1.72,0,0,1,141.261,39.5Zm15.546,0a1.53,1.53,0,0,1,1.488,1.712h-3.109A1.717,1.717,0,0,1,156.807,39.5Zm-39.1.255a1.577,1.577,0,0,1,1.536,1.293,4.328,4.328,0,0,1,.037.462v1.117a2.193,2.193,0,0,1-.067.6,1.534,1.534,0,0,1-1.524,1.257c-1.082,0-1.8-.9-1.8-2.326,0-1.329.618-2.4,1.816-2.4h0Zm-25.445.061c1.178,0,1.773,1.017,1.773,2.362,0,1.429-.675,2.393-1.81,2.393a1.592,1.592,0,0,1-1.536-1.245,2.9,2.9,0,0,1-.049-.559v-1.16a2.274,2.274,0,0,1,.049-.468,1.647,1.647,0,0,1,1.573-1.324ZM59.053,42.4l.006.917A1.806,1.806,0,0,1,59,43.77a1.421,1.421,0,0,1-1.366.96.937.937,0,0,1-1.032-1c0-1.027,1.07-1.354,2.447-1.33Z" transform="translate(-2.37 -4.176)"/></svg>