<svg xmlns="http://www.w3.org/2000/svg" width="466.342" height="36.019" viewBox="0 0 466.342 36.019"><defs><style>.a,.b{fill:#4b4b4d;}.a{font-size:24px;font-family:Poppins-Regular, Poppins;}</style></defs><text class="a" transform="translate(40.342 25)"><tspan x="0" y="0">Vital during the Covid-19 pandemic</tspan></text><path class="b" d="M20.247,7.877a11.211,11.211,0,0,1,3.713.675,6.314,6.314,0,0,0,2.075-2.862A14.6,14.6,0,0,0,14.48,5.682a6.314,6.314,0,0,0,2.075,2.862A11.263,11.263,0,0,1,20.247,7.877ZM11.505,30.852a6.4,6.4,0,0,0,1.723-2.982,11.168,11.168,0,0,1-4.142-7.708,5.886,5.886,0,0,0-1.857-.324,5.729,5.729,0,0,0-1.582.218,14.646,14.646,0,0,0,5.858,10.8Zm15.767-3A6.427,6.427,0,0,0,29,30.845a14.6,14.6,0,0,0,5.837-10.8,5.844,5.844,0,0,0-1.561-.211,6.015,6.015,0,0,0-1.871.331A11.175,11.175,0,0,1,27.273,27.856Zm7.982-14.417a11.41,11.41,0,0,0-3.889-1.4,12.253,12.253,0,0,0,.7-3.952A12.24,12.24,0,0,0,29.186.2a.551.551,0,0,0-.7-.127.582.582,0,0,0-.253.682A8.569,8.569,0,0,1,20.254,12.1,8.55,8.55,0,0,1,11.815,3.46,8.867,8.867,0,0,1,12.279.752.582.582,0,0,0,12.026.07a.551.551,0,0,0-.7.127A12.279,12.279,0,0,0,8.439,8.088a12.067,12.067,0,0,0,.7,3.952,11.463,11.463,0,0,0-3.889,1.4,12.036,12.036,0,0,0-5.225,6.5.585.585,0,0,0,.246.689.55.55,0,0,0,.7-.113,8.387,8.387,0,0,1,2.054-1.765,8.338,8.338,0,0,1,11.527,3.165A8.768,8.768,0,0,1,11.47,33.722a8.262,8.262,0,0,1-2.518.942.581.581,0,0,0-.45.57.568.568,0,0,0,.457.563,11.426,11.426,0,0,0,11.287-4.206A11.426,11.426,0,0,0,31.534,35.8a.568.568,0,0,0,.457-.563.574.574,0,0,0-.45-.57,8.017,8.017,0,0,1-2.518-.942,8.768,8.768,0,0,1-3.087-11.808,8.338,8.338,0,0,1,11.527-3.165,8.542,8.542,0,0,1,2.054,1.765.55.55,0,0,0,.7.113.582.582,0,0,0,.246-.689,11.925,11.925,0,0,0-5.211-6.5ZM20.247,22.512a3.376,3.376,0,1,1,3.376-3.376A3.377,3.377,0,0,1,20.247,22.512Z" transform="translate(0.005 0.004)"/></svg>